<svg width="14" height="15" viewBox="0 0 14 15" fill="none" xmlns="http://www.w3.org/2000/svg">
<path d="M8.14062 4.14286C8.14062 3.98214 8.01563 3.85714 7.85491 3.85714H7.28348C7.12277 3.85714 6.99777 3.98214 6.99777 4.14286V7.28571H4.99777C4.83705 7.28571 4.71205 7.41071 4.71205 7.57143V8.14286C4.71205 8.30357 4.83705 8.42857 4.99777 8.42857H7.85491C8.01563 8.42857 8.14062 8.30357 8.14062 8.14286V4.14286ZM11.8549 7.28571C11.8549 9.96429 9.67634 12.1429 6.99777 12.1429C4.3192 12.1429 2.14062 9.96429 2.14062 7.28571C2.14062 4.60714 4.3192 2.42857 6.99777 2.42857C9.67634 2.42857 11.8549 4.60714 11.8549 7.28571ZM13.8549 7.28571C13.8549 3.5 10.7835 0.428571 6.99777 0.428571C3.21205 0.428571 0.140625 3.5 0.140625 7.28571C0.140625 11.0714 3.21205 14.1429 6.99777 14.1429C10.7835 14.1429 13.8549 11.0714 13.8549 7.28571Z" fill="white"/>
</svg>
