<svg width="14" height="15" viewBox="0 0 14 15" fill="none" xmlns="http://www.w3.org/2000/svg">
<path d="M6.99777 0.428571C3.21205 0.428571 0.140625 3.5 0.140625 7.28571C0.140625 11.0714 3.21205 14.1429 6.99777 14.1429C10.7835 14.1429 13.8549 11.0714 13.8549 7.28571C13.8549 3.5 10.7835 0.428571 6.99777 0.428571ZM8.14062 11.5625C8.14062 11.7232 8.01563 11.8571 7.86384 11.8571H6.14955C5.98884 11.8571 5.85491 11.7232 5.85491 11.5625V9.86607C5.85491 9.70536 5.98884 9.57143 6.14955 9.57143H7.86384C8.01563 9.57143 8.14062 9.70536 8.14062 9.86607V11.5625ZM8.12277 8.49107C8.11384 8.61607 7.97991 8.71429 7.8192 8.71429H6.16741C5.99777 8.71429 5.86384 8.61607 5.86384 8.49107L5.71205 2.94643C5.71205 2.88393 5.73884 2.82143 5.80134 2.78571C5.85491 2.74107 5.93527 2.71428 6.01563 2.71428H7.97991C8.06027 2.71428 8.14062 2.74107 8.1942 2.78571C8.2567 2.82143 8.28348 2.88393 8.28348 2.94643L8.12277 8.49107Z" fill="white"/>
</svg>
