<svg width="13" height="14" viewBox="0 0 13 14" fill="none" xmlns="http://www.w3.org/2000/svg">
<path d="M11.9668 3.71875L8.7793 0.53125C8.70117 0.453124 8.60742 0.382812 8.49805 0.3125V4H12.1855C12.1152 3.89062 12.0449 3.79688 11.9668 3.71875ZM8.24805 5C7.83398 5 7.49805 4.66406 7.49805 4.25V-9.53674e-07H1.24805C0.833984 -9.53674e-07 0.498047 0.335937 0.498047 0.75V13.25C0.498047 13.6641 0.833984 14 1.24805 14H11.748C12.1621 14 12.498 13.6641 12.498 13.25V5H8.24805ZM9.49805 10.75C9.49805 10.8906 9.38867 11 9.24805 11H3.74805C3.60742 11 3.49805 10.8906 3.49805 10.75V10.25C3.49805 10.1094 3.60742 10 3.74805 10H9.24805C9.38867 10 9.49805 10.1094 9.49805 10.25V10.75ZM9.49805 8.75C9.49805 8.89062 9.38867 9 9.24805 9H3.74805C3.60742 9 3.49805 8.89062 3.49805 8.75V8.25C3.49805 8.10937 3.60742 8 3.74805 8H9.24805C9.38867 8 9.49805 8.10937 9.49805 8.25V8.75ZM9.49805 6.75C9.49805 6.89062 9.38867 7 9.24805 7H3.74805C3.60742 7 3.49805 6.89062 3.49805 6.75V6.25C3.49805 6.10937 3.60742 6 3.74805 6H9.24805C9.38867 6 9.49805 6.10937 9.49805 6.25V6.75Z" fill="white"/>
</svg>
