<svg width="16" height="15" viewBox="0 0 16 15" fill="none" xmlns="http://www.w3.org/2000/svg">
<path d="M9.71429 6.71429C9.71429 7.02679 9.45536 7.28571 9.14286 7.28571H6.85714C6.54464 7.28571 6.28571 7.02679 6.28571 6.71429C6.28571 6.40179 6.54464 6.14286 6.85714 6.14286H9.14286C9.45536 6.14286 9.71429 6.40179 9.71429 6.71429ZM14.8571 5C14.8571 4.6875 14.5982 4.42857 14.2857 4.42857H1.71429C1.40179 4.42857 1.14286 4.6875 1.14286 5V13.5714C1.14286 13.8839 1.40179 14.1429 1.71429 14.1429H14.2857C14.5982 14.1429 14.8571 13.8839 14.8571 13.5714V5ZM15.4286 0.999999C15.4286 0.687499 15.1696 0.428571 14.8571 0.428571H1.14286C0.830357 0.428571 0.571429 0.687499 0.571429 0.999999V3.28571C0.571429 3.59821 0.830357 3.85714 1.14286 3.85714H14.8571C15.1696 3.85714 15.4286 3.59821 15.4286 3.28571V0.999999Z" fill="white"/>
</svg>
