<svg width="18" height="17" viewBox="0 0 18 17" fill="none" xmlns="http://www.w3.org/2000/svg">
<path d="M8.42969 8.28571C8.42969 9.54464 7.4029 10.5714 6.14397 10.5714C4.88505 10.5714 3.85826 9.54464 3.85826 8.28571C3.85826 7.02679 4.88505 6 6.14397 6C7.4029 6 8.42969 7.02679 8.42969 8.28571ZM15.2868 12.8571C15.2868 13.4821 14.7779 14 14.144 14C13.519 14 13.0011 13.4911 13.0011 12.8571C13.0011 12.2321 13.519 11.7143 14.144 11.7143C14.769 11.7143 15.2868 12.2321 15.2868 12.8571ZM15.2868 3.71428C15.2868 4.33928 14.7779 4.85714 14.144 4.85714C13.519 4.85714 13.0011 4.34821 13.0011 3.71428C13.0011 3.08928 13.519 2.57143 14.144 2.57143C14.769 2.57143 15.2868 3.08928 15.2868 3.71428ZM11.8583 7.47321C11.8583 7.34821 11.769 7.23214 11.644 7.20536L10.2868 7C10.2065 6.75 10.0993 6.50893 9.98326 6.26786C10.2333 5.91964 10.5011 5.59821 10.76 5.25C10.7958 5.19643 10.8225 5.14286 10.8225 5.08036C10.8225 4.83036 9.76897 3.86607 9.53683 3.65178C9.48326 3.60714 9.42076 3.58036 9.34933 3.58036C9.28683 3.58036 9.22433 3.59821 9.17076 3.64286L8.11719 4.4375C7.9029 4.33036 7.67969 4.23214 7.44755 4.16071L7.24219 2.79464C7.22433 2.66964 7.09933 2.57143 6.97433 2.57143H5.31362C5.18862 2.57143 5.08147 2.66071 5.04576 2.78571C4.92969 3.22321 4.88505 3.71428 4.8404 4.16071C4.59933 4.24107 4.37612 4.33036 4.1529 4.44643L3.12612 3.64286C3.07254 3.60714 3.01004 3.58036 2.93862 3.58036C2.67969 3.58036 1.67969 4.66071 1.50112 4.90178C1.45647 4.95536 1.43862 5.01786 1.43862 5.08036C1.43862 5.14286 1.4654 5.20536 1.50112 5.25893C1.78683 5.59821 2.05469 5.92857 2.30469 6.28571C2.18862 6.50893 2.0904 6.73214 2.01897 6.96429L0.635045 7.17857C0.518973 7.19643 0.429688 7.33036 0.429688 7.44643V9.09821C0.429688 9.22321 0.518973 9.33929 0.643973 9.35714L2.00112 9.57143C2.08147 9.82143 2.18862 10.0625 2.31362 10.3036C2.05469 10.6518 1.78683 10.9821 1.5279 11.3214C1.49219 11.375 1.4654 11.4286 1.4654 11.4911C1.4654 11.75 2.51897 12.7054 2.75112 12.9196C2.80469 12.9643 2.86719 12.9911 2.93862 12.9911C3.00112 12.9911 3.07254 12.9732 3.11719 12.9286L4.17076 12.1339C4.38504 12.2411 4.60826 12.3393 4.8404 12.4107L5.04576 13.7768C5.06362 13.9018 5.18862 14 5.31362 14H6.97433C7.09933 14 7.20647 13.9107 7.24219 13.7857C7.35826 13.3482 7.4029 12.8571 7.44755 12.4018C7.68862 12.3304 7.91183 12.2411 8.13505 12.125L9.16183 12.9286C9.2154 12.9643 9.2779 12.9911 9.34933 12.9911C9.60826 12.9911 10.6083 11.9018 10.7868 11.6607C10.8315 11.6161 10.8493 11.5536 10.8493 11.4911C10.8493 11.4196 10.8225 11.3661 10.7868 11.3125C10.5011 10.9732 10.2333 10.6429 9.98326 10.2857C10.0993 10.0625 10.1975 9.83929 10.269 9.60714L11.6529 9.39286C11.769 9.375 11.8583 9.24107 11.8583 9.125V7.47321ZM17.5725 12.2321C17.5725 12.0982 16.4208 11.9732 16.2422 11.9554C16.1708 11.7946 16.0815 11.6339 15.9743 11.4911C16.0547 11.3125 16.4297 10.4196 16.4297 10.2589C16.4297 10.2411 16.4208 10.2143 16.394 10.1964C16.2868 10.1339 15.3315 9.57143 15.2868 9.57143L15.2333 9.58929C14.9297 9.89286 14.6618 10.2411 14.4118 10.5893C14.3225 10.5804 14.2333 10.5714 14.144 10.5714C14.0547 10.5714 13.9654 10.5804 13.8761 10.5893C13.7868 10.4554 13.1172 9.57143 13.0011 9.57143C12.9565 9.57143 12.0011 10.1429 11.894 10.1964C11.8672 10.2143 11.8583 10.2411 11.8583 10.2589C11.8583 10.4107 12.2333 11.3125 12.3136 11.4911C12.2065 11.6339 12.1172 11.7946 12.0458 11.9554C11.8672 11.9732 10.7154 12.0982 10.7154 12.2321V13.4821C10.7154 13.6161 11.8672 13.7411 12.0458 13.7589C12.1172 13.9286 12.2065 14.0804 12.3136 14.2232C12.2333 14.4018 11.8583 15.3036 11.8583 15.4554C11.8583 15.4732 11.8672 15.5 11.894 15.5179C12.0011 15.5804 12.9565 16.1518 13.0011 16.1518C13.1172 16.1518 13.7868 15.2589 13.8761 15.125C13.9654 15.1339 14.0547 15.1429 14.144 15.1429C14.2333 15.1429 14.3225 15.1339 14.4118 15.125C14.5011 15.2589 15.1708 16.1518 15.2868 16.1518C15.3315 16.1518 16.2868 15.5804 16.394 15.5179C16.4208 15.5 16.4297 15.4821 16.4297 15.4554C16.4297 15.2946 16.0547 14.4018 15.9743 14.2232C16.0815 14.0804 16.1708 13.9286 16.2422 13.7589C16.4208 13.7411 17.5725 13.6161 17.5725 13.4821V12.2321ZM17.5725 3.08928C17.5725 2.95536 16.4208 2.83036 16.2422 2.8125C16.1708 2.65178 16.0815 2.49107 15.9743 2.34821C16.0547 2.16964 16.4297 1.27678 16.4297 1.11607C16.4297 1.09821 16.4208 1.07143 16.394 1.05357C16.2868 0.991071 15.3315 0.428571 15.2868 0.428571L15.2333 0.446428C14.9297 0.749999 14.6618 1.09821 14.4118 1.44643C14.3225 1.4375 14.2333 1.42857 14.144 1.42857C14.0547 1.42857 13.9654 1.4375 13.8761 1.44643C13.7868 1.3125 13.1172 0.428571 13.0011 0.428571C12.9565 0.428571 12.0011 0.999999 11.894 1.05357C11.8672 1.07143 11.8583 1.09821 11.8583 1.11607C11.8583 1.26786 12.2333 2.16964 12.3136 2.34821C12.2065 2.49107 12.1172 2.65178 12.0458 2.8125C11.8672 2.83036 10.7154 2.95536 10.7154 3.08928V4.33928C10.7154 4.47321 11.8672 4.59821 12.0458 4.61607C12.1172 4.78571 12.2065 4.9375 12.3136 5.08036C12.2333 5.25893 11.8583 6.16071 11.8583 6.3125C11.8583 6.33036 11.8672 6.35714 11.894 6.375C12.0011 6.4375 12.9565 7.00893 13.0011 7.00893C13.1172 7.00893 13.7868 6.11607 13.8761 5.98214C13.9654 5.99107 14.0547 6 14.144 6C14.2333 6 14.3225 5.99107 14.4118 5.98214C14.5011 6.11607 15.1708 7.00893 15.2868 7.00893C15.3315 7.00893 16.2868 6.4375 16.394 6.375C16.4208 6.35714 16.4297 6.33929 16.4297 6.3125C16.4297 6.15179 16.0547 5.25893 15.9743 5.08036C16.0815 4.9375 16.1708 4.78571 16.2422 4.61607C16.4208 4.59821 17.5725 4.47321 17.5725 4.33928V3.08928Z" fill="white"/>
</svg>
